<svg width="141" height="29" viewBox="0 0 141 29" fill="none" xmlns="http://www.w3.org/2000/svg"><path fill-rule="evenodd" clip-rule="evenodd" d="M27.6271 1.91555C27.6271 1.15265 27.0087 0.534195 26.2458 0.534195L5.47436 0.53418C4.5667 0.53418 3.77249 0.665832 3.09174 0.92914C2.41099 1.2127 1.8437 1.58741 1.38987 2.05326C0.917124 2.53937 0.567296 3.08625 0.34038 3.69388C0.113462 4.32177 0 4.96991 0 5.63831V8.69612C0 10.2916 1.29341 11.585 2.88891 11.585H19.339L11.0509 6.0596H26.2458C27.0087 6.0596 27.6271 5.44115 27.6271 4.67825V1.91555ZM3.89067e-05 26.7799C3.89067e-05 27.5428 0.618492 28.1613 1.38139 28.1613L22.1528 28.1613C23.0605 28.1613 23.8547 28.0296 24.5354 27.7663C25.2162 27.4828 25.7835 27.108 26.2373 26.6422C26.71 26.1561 27.0599 25.6092 27.2868 25.0016C27.5137 24.3737 27.6272 23.7255 27.6272 23.0571V19.9993C27.6272 18.4038 26.3338 17.1104 24.7383 17.1104H8.28816L16.5763 22.6358H1.38139C0.618492 22.6358 3.89067e-05 23.2543 3.89067e-05 24.0172V26.7799Z" fill="#6966FB"></path><path d="M61.5865 19.9454C61.5865 16.1887 59.8437 13.7875 55.506 12.6256L48.3025 10.6892C47.2181 10.4181 46.5597 9.75968 46.5597 8.48162C46.5597 6.54518 48.0314 5.73187 50.3551 5.73187C53.1436 5.73187 54.1505 7.2423 54.1505 9.06256V9.5273H60.3084V8.86891C60.3084 3.91162 56.4355 0.619661 50.3551 0.619661C43.9261 0.619661 40.0919 3.71797 40.0919 9.10128C40.0919 13.5164 42.2608 15.3754 46.4822 16.421L53.2598 18.1251C54.6153 18.4737 55.1187 19.3257 55.1187 20.5263C55.1187 22.6177 53.2985 23.7408 50.5487 23.7408C47.4892 23.7408 46.0175 22.3466 46.0175 20.0616V19.5194H39.6272V20.2552C39.6272 25.716 44.0036 28.8143 50.51 28.8143C56.7841 28.8143 61.5865 25.3674 61.5865 19.9454Z" fill="#EFEFF7"></path><path d="M82.7088 28.2721V15.6465C82.7088 10.6504 79.3394 7.5134 73.5688 7.5134C68.8052 7.5134 65.3583 9.95332 64.5063 14.0199H70.4318C70.974 13.0129 72.0197 12.5482 73.3752 12.5482C75.1954 12.5482 76.2024 13.6713 76.2024 15.1817V17.5442C75.1954 16.7309 73.3364 16.0338 70.8965 16.0338C66.1716 16.0338 63.0346 18.1638 63.0346 22.3466C63.0346 26.0645 65.823 28.7368 70.4705 28.7368C73.1041 28.7368 75.3116 27.9235 76.4735 26.568V28.2721H82.7088ZM72.6393 24.5928C70.5867 24.5928 69.115 23.7795 69.115 22.2304C69.115 20.6425 70.5092 19.8679 72.7168 19.8679C74.7307 19.8679 76.2024 20.8749 76.2024 22.2304C76.2024 23.5859 74.6145 24.5928 72.6393 24.5928Z" fill="#EFEFF7"></path><path d="M92.1381 0H85.6317V28.2721H91.8283V26.142C92.4479 27.2651 94.6168 28.7368 97.4052 28.7368C103.137 28.7368 106.003 24.5541 106.003 19.8679V16.3823C106.003 11.6961 103.137 7.5134 97.4052 7.5134C94.9653 7.5134 92.9901 8.63654 92.1381 9.68222V0ZM99.4966 16.8083V19.4419C99.4966 21.7656 98.3347 23.3922 95.7786 23.3922C93.8422 23.3922 92.1381 22.1142 92.1381 19.5581V16.6921C92.1381 14.136 93.8422 12.858 95.7786 12.858C98.3347 12.858 99.4966 14.4071 99.4966 16.8083Z" fill="#EFEFF7"></path><path d="M126.298 20.1777V16.4598C126.298 11.6187 123.161 7.5134 117.003 7.5134C110.845 7.5134 107.398 11.3863 107.398 17.0407V19.5581C107.398 25.3674 111.31 28.7368 117.158 28.7368C121.767 28.7368 125.485 25.9871 126.182 22.2304H120.45C120.024 23.2373 118.978 24.1668 117.158 24.1668C114.873 24.1668 113.672 22.6564 113.672 20.6425V20.1777H126.298ZM113.672 15.9563C113.672 13.6326 114.679 12.1221 117.042 12.1221C119.327 12.1221 120.334 13.6326 120.334 15.6465V16.3823H113.672V15.9563Z" fill="#EFEFF7"></path><path d="M140.719 7.82323H140.409C137.504 7.82323 135.491 8.52035 134.871 11.5412V7.97815H128.713V28.2721H135.219V18.9771C135.219 15.4528 136.846 14.2135 139.867 14.2135H140.719V7.82323Z" fill="#EFEFF7"></path></svg>