<svg width="88" height="88" viewBox="0 0 88 88" fill="none" xmlns="http://www.w3.org/2000/svg">
<circle cx="44" cy="44" r="44" fill="url(#paint0_linear_92_78)"/>
<path d="M34.8327 25.667H27.4993C26.4868 25.667 25.666 26.4878 25.666 27.5003V60.5004C25.666 61.5129 26.4868 62.3337 27.4993 62.3337H34.8327C35.8452 62.3337 36.666 61.5129 36.666 60.5004V27.5003C36.666 26.4878 35.8452 25.667 34.8327 25.667Z" fill="white"/>
<path d="M60.5007 25.667H53.1673C52.1548 25.667 51.334 26.4878 51.334 27.5003V60.5004C51.334 61.5129 52.1548 62.3337 53.1673 62.3337H60.5007C61.5132 62.3337 62.334 61.5129 62.334 60.5004V27.5003C62.334 26.4878 61.5132 25.667 60.5007 25.667Z" fill="white"/>
<path d="M58.6673 40.333H29.334V47.6663H58.6673V40.333Z" fill="white"/>
<defs>
<linearGradient id="paint0_linear_92_78" x1="11.5" y1="9.5" x2="77.5" y2="82" gradientUnits="userSpaceOnUse">
<stop stop-color="#AC52FF"/>
<stop offset="1" stop-color="#4EB1FF"/>
</linearGradient>
</defs>
</svg>
