<svg width="1000" height="1000" viewBox="0 0 1000 1000" fill="none" xmlns="http://www.w3.org/2000/svg">
<g clip-path="url(#clip0_91_51)">
<rect width="1000" height="1000" fill="white"/>
<path d="M441.458 793.459C468.055 894.633 563.492 971.817 611.471 968.688C613.036 968.688 794.001 933.747 893.089 763.211C970.273 630.747 943.676 502.454 839.373 499.847C801.303 502.454 391.392 600.499 441.458 793.459ZM532.723 31.005C466.49 31.005 401.301 45.0859 341.327 71.6832C330.896 75.8553 320.988 81.0704 311.6 86.2856C304.821 89.9362 298.563 93.5868 291.783 97.2374L293.347 97.7589C274.051 110.797 257.363 126.964 243.282 145.217C107.688 324.618 561.927 454.996 804.953 455.518C916.557 535.831 947.848 229.181 838.852 144.174C753.323 70.6401 644.848 30.4835 532.723 31.005Z" fill="#0E3CA5"/>
<path d="M362.185 136.348C300.647 226.57 96.2129 290.195 62.8359 280.286V279.765L67.0075 271.42C102.471 205.709 152.014 148.343 213.032 105.057C225.548 96.1912 238.586 87.3255 252.145 79.503C273.006 68.0297 296.474 62.293 319.942 61.7715C411.207 63.336 363.228 134.783 362.706 135.826" fill="#5493F7"/>
<path d="M310.553 812.231C315.247 841.958 310.553 958.777 304.295 968.686C299.08 969.207 288.128 969.729 256.316 951.997C194.256 917.056 140.54 870.119 97.7756 812.753C66.4847 771.032 42.4952 724.617 25.8068 675.073C-10.1777 567.119 -8.61319 450.3 31.0219 343.39C67.5277 391.369 109.77 434.655 145.755 483.156C180.696 529.049 227.633 604.668 237.02 620.835C296.473 720.966 305.86 782.505 310.553 812.231Z" fill="#5493F7"/>
<path d="M1000 522.272C1000 584.332 988.527 645.871 965.581 703.759C907.693 766.341 516.557 612.494 512.906 610.929C459.19 587.461 296.478 516.014 281.875 403.367C260.493 241.697 587.483 129.05 731.421 124.878C748.631 124.878 801.304 125.921 831.552 150.432C938.983 244.305 1000 379.899 1000 522.272ZM657.887 922.274C681.355 839.353 885.789 754.868 930.639 750.174C936.376 749.652 938.462 753.303 936.376 757.997C889.961 843.003 820.078 912.886 735.593 959.823C692.829 980.162 645.892 965.038 657.887 922.274Z" fill="#5493F7"/>
</g>
<defs>
<clipPath id="clip0_91_51">
<rect width="1000" height="1000" fill="white"/>
</clipPath>
</defs>
</svg>
