<svg width="192" height="181" viewBox="0 0 192 181" fill="none" xmlns="http://www.w3.org/2000/svg">
<path d="M84.7 146.4C89.8 165.8 108.1 180.6 117.3 180C117.6 180 152.3 173.3 171.3 140.6C186.1 115.2 181 90.6 161 90.1C153.7 90.6 75.1 109.4 84.7 146.4ZM102.2 0.199998C89.5 0.199998 77 2.9 65.5 8C63.5 8.8 61.6 9.8 59.8 10.8C58.5 11.5 57.3 12.2 56 12.9L56.3 13C52.6 15.5 49.4 18.6 46.7 22.1C20.7 56.5 107.8 81.5 154.4 81.6C175.8 97 181.8 38.2 160.9 21.9C144.5 7.79999 123.7 0.0999976 102.2 0.199998Z" fill="#0E3CA5"/>
<path d="M69.4999 20.4C57.6999 37.7 18.4999 49.9 12.0999 48V47.9001L12.8998 46.3C19.6998 33.7 29.1998 22.7 40.8998 14.4C43.2998 12.7 45.7998 11 48.3998 9.50005C52.3998 7.30005 56.8998 6.20004 61.3998 6.10004C78.8998 6.40004 69.6998 20.1 69.5998 20.3" fill="#5493F7"/>
<path d="M59.5999 150C60.4999 155.7 59.5999 178.1 58.3999 180C57.3999 180.1 55.2999 180.2 49.1999 176.8C37.2999 170.1 26.9999 161.1 18.7999 150.1C12.7999 142.1 8.19994 133.2 4.99994 123.7C-1.90006 103 -1.60006 80.6 5.99994 60.1C12.9999 69.3 21.0999 77.6001 27.9999 86.9001C34.6999 95.7001 43.6999 110.2 45.4999 113.3C56.8999 132.5 58.6999 144.3 59.5999 150Z" fill="#5493F7"/>
<path d="M191.8 94.4C191.8 106.3 189.6 118.1 185.2 129.2C174.1 141.2 99.1 111.7 98.4 111.4C88.1 106.9 56.9 93.2 54.1 71.6C50 40.6 112.7 19 140.3 18.2C143.6 18.2 153.7 18.4 159.5 23.1C180.1 41.1 191.8 67.1 191.8 94.4ZM126.2 171.1C130.7 155.2 169.9 139 178.5 138.1C179.6 138 180 138.7 179.6 139.6C170.7 155.9 157.3 169.3 141.1 178.3C132.9 182.2 123.9 179.3 126.2 171.1Z" fill="#5493F7"/>
</svg>
