<svg width="118" height="129" viewBox="0 0 118 129" fill="none" xmlns="http://www.w3.org/2000/svg">
<g filter="url(#filter0_d_75_195)">
<path d="M9 40.3975C9 34.95 11.9534 29.9307 16.7154 27.2851L52.9312 7.16522C57.5766 4.58445 63.2407 4.65419 67.8211 7.34856L101.605 27.2216C106.187 29.9167 109 34.8352 109 40.1506V82.5402C109 88.0964 105.929 93.1974 101.018 95.797L67.2508 113.674C62.9695 115.941 57.8571 116 53.5242 113.834L17.2918 95.7173C12.21 93.1764 9 87.9825 9 82.3009V40.3975Z" fill="#8246FA"/>
<path d="M111.5 82.5402V40.1506C111.5 33.9492 108.218 28.211 102.873 25.0668L69.0887 5.19373C63.7448 2.0503 57.1367 1.96893 51.7171 4.97983L15.5012 25.0997C9.94561 28.1862 6.5 34.0421 6.5 40.3975V82.3009C6.5 88.9294 10.245 94.989 16.1738 97.9534L52.4062 116.07C57.4612 118.597 63.4256 118.528 68.4205 115.883L102.188 98.0065C107.917 94.9736 111.5 89.0224 111.5 82.5402Z" stroke="#8246FA" stroke-opacity="0.45" stroke-width="5"/>
</g>
<path d="M61.9439 53.1445C63.3064 53.1451 64.6384 52.7409 65.7712 51.9833C66.904 51.2257 67.7865 50.1487 68.307 48.8887C68.8276 47.6287 68.9629 46.2425 68.6955 44.9056C68.4281 43.5687 67.7702 42.3413 66.805 41.3789C65.8399 40.4165 64.6111 39.7624 63.2742 39.4994C61.9373 39.2365 60.5525 39.3765 59.2952 39.9018C58.0379 40.4271 56.9647 41.3141 56.2115 42.4502C55.4584 43.5864 55.0592 44.9207 55.0645 46.2841C55.0732 48.1051 55.8015 49.8486 57.0904 51.134C58.3794 52.4193 60.1242 53.1421 61.9439 53.1445ZM61.9439 41.7593C62.8326 41.7587 63.7016 42.0216 64.4411 42.5148C65.1807 43.0079 65.7576 43.7093 66.0992 44.5303C66.4408 45.3513 66.5316 46.2552 66.3604 47.1278C66.1891 48.0004 65.7633 48.8027 65.1367 49.4335C64.5102 50.0642 63.711 50.495 62.84 50.6716C61.969 50.8482 61.0652 50.7626 60.2428 50.4257C59.4203 50.0888 58.7161 49.5156 58.2189 48.7785C57.7216 48.0414 57.4538 47.1734 57.449 46.2841C57.4479 45.6924 57.5632 45.1063 57.7885 44.5592C58.0138 44.0121 58.3446 43.5148 58.762 43.0957C59.1795 42.6766 59.6753 42.3439 60.2213 42.1166C60.7673 41.8894 61.3526 41.772 61.9439 41.7712V41.7593Z" fill="white"/>
<path d="M61.9441 58.8476C64.4307 58.8476 66.8615 58.1096 68.9289 56.7268C70.9961 55.3441 72.6074 53.3787 73.5584 51.0795C74.509 48.7802 74.7571 46.2504 74.271 43.8101C73.7847 41.3697 72.5863 39.1285 70.8269 37.37C69.0675 35.6115 66.8263 34.4147 64.3871 33.931C61.9479 33.4474 59.4201 33.6986 57.1236 34.6529C54.8271 35.6072 52.865 37.2217 51.4856 39.2922C50.1062 41.3626 49.3716 43.796 49.3745 46.2844V80.4367C49.3745 80.7532 49.5001 81.0566 49.7237 81.2806C49.9473 81.5043 50.2506 81.6301 50.5668 81.6301C50.883 81.6301 51.1863 81.5043 51.4098 81.2806C51.6334 81.0566 51.759 80.7532 51.759 80.4367V53.6279C52.9225 55.2427 54.4525 56.558 56.2232 57.4655C57.9939 58.3729 59.9547 58.8467 61.9441 58.8476ZM61.9441 36.0803C63.958 36.0803 65.9267 36.6778 67.6013 37.7972C69.276 38.9166 70.5815 40.5077 71.3528 42.3693C72.1238 44.231 72.3263 46.2797 71.9343 48.2564C71.5423 50.2331 70.5735 52.0492 69.1502 53.4751C67.7269 54.9009 65.9133 55.8726 63.9384 56.2672C61.9634 56.6618 59.916 56.4617 58.0547 55.6921C56.1934 54.9225 54.6019 53.618 53.4813 51.9435C52.3608 50.269 51.7614 48.2996 51.759 46.2844C51.7583 43.5799 52.8307 40.9858 54.7406 39.0724C56.6505 37.1589 59.2415 36.0827 61.9441 36.0803Z" fill="white"/>
<path d="M61.9437 28C57.1009 28.0055 52.4581 29.9341 49.0351 33.3623C45.6121 36.7905 43.6886 41.438 43.687 46.2843V91.8069C43.687 92.1234 43.8126 92.4268 44.0362 92.6505C44.2598 92.8745 44.5631 93 44.8793 93C45.1955 93 45.4987 92.8745 45.7223 92.6505C45.9459 92.4268 46.0715 92.1234 46.0715 91.8069V46.2843C46.0715 43.1429 47.0024 40.072 48.7465 37.4601C50.4906 34.8481 52.9694 32.8123 55.8697 31.6101C58.77 30.408 61.9613 30.0934 65.0402 30.7063C68.1192 31.3192 70.9473 32.8319 73.1669 35.0532C75.3868 37.2745 76.8984 40.1046 77.5108 43.1856C78.1233 46.2666 77.8089 49.4602 76.6078 52.3625C75.4064 55.2647 73.3718 57.7455 70.7617 59.4906C68.1516 61.2357 65.0829 62.1673 61.9437 62.1673C61.6275 62.1673 61.3242 62.2932 61.1006 62.5169C60.8771 62.7405 60.7514 63.0439 60.7514 63.3604C60.7514 63.6769 60.8771 63.9803 61.1006 64.2043C61.3242 64.428 61.6275 64.5535 61.9437 64.5535C66.7857 64.5535 71.4292 62.6287 74.8531 59.2027C78.2771 55.7765 80.2004 51.1296 80.2004 46.2843C80.2004 41.4389 78.2771 36.7921 74.8531 33.3659C71.4292 29.9397 66.7857 28.0149 61.9437 28.0149V28Z" fill="white"/>
<path d="M39.1923 50.7583C38.8761 50.7583 38.5728 50.884 38.3492 51.1077C38.1256 51.3315 38 51.635 38 51.9514V74.7187C38 75.0352 38.1256 75.3386 38.3492 75.5623C38.5728 75.7862 38.8761 75.9118 39.1923 75.9118C39.5085 75.9118 39.8117 75.7862 40.0353 75.5623C40.2589 75.3386 40.3845 75.0352 40.3845 74.7187V51.9514C40.3845 51.635 40.2589 51.3315 40.0353 51.1077C39.8117 50.884 39.5085 50.7583 39.1923 50.7583Z" fill="white"/>
<path d="M56.2567 73.5376C55.9405 73.5376 55.6373 73.6634 55.4137 73.8871C55.1901 74.1108 55.0645 74.4142 55.0645 74.7307V86.1158C55.0645 86.4323 55.1901 86.7357 55.4137 86.9594C55.6373 87.1834 55.9405 87.3089 56.2567 87.3089C56.5729 87.3089 56.8762 87.1834 57.0998 86.9594C57.3234 86.7357 57.449 86.4323 57.449 86.1158V74.7307C57.449 74.4142 57.3234 74.1108 57.0998 73.8871C56.8762 73.6634 56.5729 73.5376 56.2567 73.5376Z" fill="white"/>
<defs>
<filter id="filter0_d_75_195" x="0" y="0.277588" width="118" height="128.14" filterUnits="userSpaceOnUse" color-interpolation-filters="sRGB">
<feFlood flood-opacity="0" result="BackgroundImageFix"/>
<feColorMatrix in="SourceAlpha" type="matrix" values="0 0 0 0 0 0 0 0 0 0 0 0 0 0 0 0 0 0 127 0" result="hardAlpha"/>
<feOffset dy="4"/>
<feGaussianBlur stdDeviation="2"/>
<feComposite in2="hardAlpha" operator="out"/>
<feColorMatrix type="matrix" values="0 0 0 0 0 0 0 0 0 0 0 0 0 0 0 0 0 0 0.25 0"/>
<feBlend mode="normal" in2="BackgroundImageFix" result="effect1_dropShadow_75_195"/>
<feBlend mode="normal" in="SourceGraphic" in2="effect1_dropShadow_75_195" result="shape"/>
</filter>
</defs>
</svg>
