<svg width="118" height="129" viewBox="0 0 118 129" fill="none" xmlns="http://www.w3.org/2000/svg">
<g filter="url(#filter0_d_101_55)">
<path d="M9 40.3975C9 34.95 11.9534 29.9307 16.7154 27.2851L52.9312 7.16522C57.5766 4.58445 63.2407 4.65419 67.8211 7.34856L101.605 27.2216C106.187 29.9167 109 34.8352 109 40.1506V82.5402C109 88.0964 105.929 93.1974 101.018 95.797L67.2508 113.674C62.9695 115.941 57.8571 116 53.5242 113.834L17.2918 95.7173C12.21 93.1764 9 87.9825 9 82.3009V40.3975Z" fill="white"/>
<path d="M111.5 82.5402V40.1506C111.5 33.9492 108.218 28.211 102.873 25.0668L69.0887 5.19373C63.7448 2.0503 57.1367 1.96893 51.7171 4.97983L15.5012 25.0997C9.94561 28.1862 6.5 34.0421 6.5 40.3975V82.3009C6.5 88.9294 10.245 94.989 16.1738 97.9534L52.4062 116.07C57.4612 118.597 63.4256 118.528 68.4205 115.883L102.188 98.0065C107.917 94.9736 111.5 89.0224 111.5 82.5402Z" stroke="#252444" stroke-opacity="0.5" stroke-width="5"/>
</g>
<mask id="mask0_101_55" style="mask-type:alpha" maskUnits="userSpaceOnUse" x="26" y="28" width="65" height="65">
<path d="M58.5 93C76.4493 93 91 78.4493 91 60.5C91 42.5507 76.4493 28 58.5 28C40.5507 28 26 42.5507 26 60.5C26 78.4493 40.5507 93 58.5 93Z" fill="white"/>
</mask>
<g mask="url(#mask0_101_55)">
<path d="M58.5 93C76.4493 93 91 78.4493 91 60.5C91 42.5507 76.4493 28 58.5 28C40.5507 28 26 42.5507 26 60.5C26 78.4493 40.5507 93 58.5 93Z" fill="white" stroke="white" stroke-width="15.3" stroke-linecap="square"/>
<path d="M98.4001 22.7422H17V103.217H98.4001V22.7422Z" fill="#252444"/>
</g>
<path fill-rule="evenodd" clip-rule="evenodd" d="M44.3569 57.4962C44.3569 51.8609 48.2699 48.0949 54.3026 47.9863H76.2463C74.9375 50.8738 73.8838 52.3378 73.0854 52.3784H54.1077C50.8222 52.3872 48.8444 54.2974 48.8444 57.4962C48.8444 60.6604 50.816 62.706 53.9969 62.7187L62.4008 62.706C63.6214 62.7187 64.6674 63.7705 64.6674 65.0368C64.6674 66.3032 63.715 67.0356 62.5174 67.0964L54.2411 67.106C48.3448 67.106 44.4475 63.2113 44.3585 57.6893L44.3569 57.4962Z" fill="white"/>
<path fill-rule="evenodd" clip-rule="evenodd" d="M72.6416 64.9901C72.6416 70.6254 68.7286 74.3914 62.6959 74.5H40.7522C42.0611 71.6125 43.1147 70.1485 43.9131 70.108H62.8909C66.1763 70.0991 68.1541 68.1889 68.1541 64.9901C68.1541 61.826 66.1825 59.7803 63.0016 59.7676L54.5978 59.7804C53.3772 59.7676 52.3311 58.7158 52.3311 57.4495C52.3311 56.1832 53.2835 55.4508 54.4811 55.3899L62.7574 55.3804C68.6537 55.3804 72.551 59.2751 72.64 64.797L72.6416 64.9901Z" fill="white"/>
<defs>
<filter id="filter0_d_101_55" x="0" y="0.277588" width="118" height="128.14" filterUnits="userSpaceOnUse" color-interpolation-filters="sRGB">
<feFlood flood-opacity="0" result="BackgroundImageFix"/>
<feColorMatrix in="SourceAlpha" type="matrix" values="0 0 0 0 0 0 0 0 0 0 0 0 0 0 0 0 0 0 127 0" result="hardAlpha"/>
<feOffset dy="4"/>
<feGaussianBlur stdDeviation="2"/>
<feComposite in2="hardAlpha" operator="out"/>
<feColorMatrix type="matrix" values="0 0 0 0 0 0 0 0 0 0 0 0 0 0 0 0 0 0 0.25 0"/>
<feBlend mode="normal" in2="BackgroundImageFix" result="effect1_dropShadow_101_55"/>
<feBlend mode="normal" in="SourceGraphic" in2="effect1_dropShadow_101_55" result="shape"/>
</filter>
</defs>
</svg>
